<svg width="41" height="41" xmlns="http://www.w3.org/2000/svg">
    <g fill-rule="nonzero" fill="none">
        <path d="M16.935 2.674v12.478c0 .98-.802 1.783-1.783 1.783H2.674c-.98 0-1.783-.802-1.783-1.783V2.674c0-.98.802-1.783 1.783-1.783h12.478c.98 0 1.783.802 1.783 1.783z" fill="#F9E23F"/>
        <g fill="#CDBA50">
            <path d="M15.152 0H2.674A2.677 2.677 0 0 0 0 2.674v12.478c0 1.474 1.2 2.674 2.674 2.674h12.478c1.474 0 2.674-1.2 2.674-2.674V2.674C17.826 1.2 16.626 0 15.152 0zm.891 15.152c0 .491-.4.891-.89.891H2.672a.893.893 0 0 1-.89-.89V2.672c0-.49.4-.89.89-.89h12.48c.49 0 .89.4.89.89v12.48zM38.326 0H25.848a2.677 2.677 0 0 0-2.674 2.674v12.478c0 1.474 1.2 2.674 2.674 2.674h12.478c1.474 0 2.674-1.2 2.674-2.674V2.674C41 1.2 39.8 0 38.326 0zm.891 15.152c0 .491-.399.891-.89.891h-12.48a.892.892 0 0 1-.89-.89V2.672c0-.49.399-.89.89-.89h12.48c.491 0 .89.4.89.89v12.48zM15.152 23.174H2.674A2.677 2.677 0 0 0 0 25.848v12.478C0 39.8 1.2 41 2.674 41h12.478c1.474 0 2.674-1.2 2.674-2.674V25.848c0-1.474-1.2-2.674-2.674-2.674zm.891 15.152c0 .491-.4.891-.89.891H2.672a.893.893 0 0 1-.89-.89v-12.48c0-.49.4-.89.89-.89h12.48c.49 0 .89.4.89.89v12.48zM38.326 23.174H25.848a2.677 2.677 0 0 0-2.674 2.674v12.478c0 1.474 1.2 2.674 2.674 2.674h12.478C39.8 41 41 39.8 41 38.326V25.848c0-1.474-1.2-2.674-2.674-2.674zm.891 15.152c0 .491-.399.891-.89.891h-12.48a.892.892 0 0 1-.89-.89v-12.48c0-.49.399-.89.89-.89h12.48c.491 0 .89.4.89.89v12.48z"/>
        </g>
    </g>
</svg>
