<svg width="37" height="36" xmlns="http://www.w3.org/2000/svg">
    <g transform="translate(.89)" fill="none" fill-rule="evenodd">
        <rect fill="#F0F7FE" width="36" height="36" rx="2"/>
        <path d="M27.13 6h-2.347v3.13h.782a.783.783 0 0 1 0 1.566h-3.13a.783.783 0 0 1 0-1.566h.782V6h-4.695v3.13h.782a.783.783 0 0 1 0 1.566h-3.13a.783.783 0 0 1 0-1.566h.783V6H12.26v3.13h.782a.783.783 0 0 1 0 1.566h-3.13a.783.783 0 0 1 0-1.566h.783V6H8.348A2.35 2.35 0 0 0 6 8.348v9.391a2.35 2.35 0 0 0 2.348 2.348h2.348v1.565H8.348a.783.783 0 0 0 0 1.565h7.043v6c0 .432.35.783.783.783h3.13c.432 0 .783-.35.783-.783v-6h7.043a.783.783 0 0 0 0-1.565h-2.347v-1.565h2.347a2.35 2.35 0 0 0 2.348-2.348V8.348A2.35 2.35 0 0 0 27.13 6zM15.391 21.652h-3.13v-1.565h3.13v1.565zm7.826 0h-3.13v-1.565h3.13v1.565z" fill="#2F80ED" fill-rule="nonzero"/>
    </g>
</svg>
