<svg width="80" height="80" xmlns="http://www.w3.org/2000/svg" xmlns:xlink="http://www.w3.org/1999/xlink">
    <defs>
        <path id="a" d="M0 0h80v80H0z"/>
    </defs>
    <g transform="matrix(-1 0 0 1 80 0)" fill="none" fill-rule="evenodd" opacity=".7">
        <mask id="b" fill="#fff">
            <use xlink:href="#a"/>
        </mask>
        <g mask="url(#b)" fill="#E6E7E8" fill-rule="nonzero">
            <path d="M16.05 80H12V69h4.05v11zM18.75 69H14.7V58h4.05v11zM66 58h-4.05V47H66v11z"/>
        </g>
        <path d="M11 80H8.333C5.388 80 3 77.537 3 74.5S5.388 69 8.333 69H11v11z" fill="#009986" fill-rule="nonzero" mask="url(#b)"/>
        <path d="M75 69a5.974 5.974 0 0 0-2.727 5.5A5.974 5.974 0 0 0 75 80H15V69h60z" fill="#00CCB3" fill-rule="nonzero" mask="url(#b)"/>
        <path d="M62 58H2a5.974 5.974 0 0 0 2.727-5.5A5.974 5.974 0 0 0 2 47h60v11z" fill="#5AAAE7" fill-rule="nonzero" mask="url(#b)"/>
        <path d="M14 69h-2.667C8.388 69 6 66.537 6 63.5S8.388 58 11.333 58H14v11z" fill="#CC7400" fill-rule="nonzero" mask="url(#b)"/>
        <path d="M78 69H18V58h60a5.974 5.974 0 0 0-2.727 5.5A5.974 5.974 0 0 0 78 69z" fill="#FF9811" fill-rule="nonzero" mask="url(#b)"/>
        <path d="M73.594 54.605c-.826 2.057-2.772 3.397-4.929 3.395H66V47h2.665a5.282 5.282 0 0 1 3.771 1.609c1.526 1.573 1.984 3.94 1.158 5.996z" fill="#1E81CE" fill-rule="nonzero" mask="url(#b)"/>
        <g fill-rule="nonzero" mask="url(#b)">
            <path d="M25 41.667C25 44.612 27.418 47 30.4 47h16.2c2.982 0 5.4-2.388 5.4-5.333V23H25v18.667z" fill="#FFC477"/>
            <path d="M25 37v-2.8h-5.143c-.71 0-1.286-.627-1.286-1.4v-5.6c0-.773.576-1.4 1.286-1.4H25V23h-5.143C17.727 23 16 24.88 16 27.2v5.6c0 2.32 1.727 4.2 3.857 4.2H25z" fill="#EE8700"/>
            <g fill="#D1D3D4">
                <path d="M38.625 19v-2c0-1.657-1.427-3-3.188-3H32.25c-1.174 0-2.125-.895-2.125-2V9H28v3c0 2.209 1.903 4 4.25 4h3.187c.587 0 1.063.448 1.063 1v2h2.125zM45 19v-5c0-2.209-1.903-4-4.25-4h-3.187c-.587 0-1.063-.448-1.063-1V5h-2.125v4c0 1.657 1.427 3 3.188 3h3.187c1.174 0 2.125.895 2.125 2v5H45z"/>
            </g>
        </g>
        <path d="M69 73v3H16v-3h53z" fill="#009986" fill-rule="nonzero" mask="url(#b)"/>
        <path d="M71 62v3H18v-3h53z" fill="#EE8700" fill-rule="nonzero" mask="url(#b)"/>
        <path d="M62 51v3H9v-3h53z" fill="#1E81CE" fill-rule="nonzero" mask="url(#b)"/>
    </g>
</svg>
