<svg width="47" height="41" xmlns="http://www.w3.org/2000/svg">
    <g fill="#58B354" fill-rule="nonzero">
        <circle fill-opacity=".599" cx="40" cy="12" r="5"/>
        <path d="M47 25.225v9.977C47 36.745 45.711 38 44.126 38h-9.95c-.782 0-1.416-.62-1.416-1.383 0-1.346-.76-8.16-.76-11.392C32 21.793 34.874 19 38.406 19h2.188C44.126 19 47 21.793 47 25.225z" fill-opacity=".599"/>
        <circle fill-opacity=".599" cx="7" cy="12" r="5"/>
        <path d="M15 25.225c0 3.335-.76 9.985-.76 11.392 0 .763-.634 1.383-1.415 1.383H2.775C1.245 38 0 36.788 0 35.298V25.225C0 21.793 2.874 19 6.406 19h2.188C12.126 19 15 21.793 15 25.225z" fill-opacity=".599"/>
        <circle cx="24" cy="8" r="8"/>
        <path d="M36 30.187v7.576A3.244 3.244 0 0 1 32.757 41H14.243A3.244 3.244 0 0 1 11 37.763v-7.576C11 24.018 16.027 19 22.206 19h2.588C30.974 19 36 24.018 36 30.187z"/>
    </g>
</svg>
