<svg width="36" height="41" xmlns="http://www.w3.org/2000/svg">
    <path d="M3.595 28.908h3.594v2.403h2.396V14.494H7.19v2.402H4.793v-1.2c0-7.286 5.912-13.294 13.18-13.294 7.267 0 13.18 6.008 13.18 13.293v1.201h-2.397v-2.402H26.36v16.817h2.396v-2.403h2.397v3.604c0 1.987-1.613 3.683-3.595 3.683h-6.212c-.496-1.395-1.813-2.402-3.373-2.402a3.603 3.603 0 0 0-3.595 3.603A3.603 3.603 0 0 0 17.973 41c1.56 0 2.877-1.007 3.373-2.402h6.212c3.303 0 5.99-2.775 5.99-6.086v-3.825a3.597 3.597 0 0 0 2.397-3.382V20.5a3.597 3.597 0 0 0-2.396-3.382v-1.423C33.549 7.085 26.56 0 17.973 0 9.384 0 2.396 7.085 2.396 15.695v1.423A3.597 3.597 0 0 0 0 20.5v4.805a3.603 3.603 0 0 0 3.595 3.603z" fill="#F2994A" fill-rule="nonzero"/>
</svg>
