<svg width="37" height="36" xmlns="http://www.w3.org/2000/svg">
    <g transform="translate(.836)" fill="none" fill-rule="evenodd">
        <rect fill="#F0F7FE" width="36" height="36" rx="2"/>
        <g transform="translate(12 6)" fill-rule="nonzero">
            <path fill="#2F80ED" d="M4.898 1.96h2.939v2.938H4.898z"/>
            <path d="M9.796 7.347V5.304a.892.892 0 0 0-.888-.896h-6.06c-.491 0-.889.401-.889.896v2.043h7.837z" fill="#2F80ED"/>
            <path d="M12.245 11.226v11.813a.614.614 0 0 1-.614.614H.614A.614.614 0 0 1 0 23.04V9.748A2.747 2.747 0 0 1 2.746 7H9.5a2.747 2.747 0 0 1 2.746 2.748v1.478z" fill="#2F80ED"/>
            <circle fill="#F7F8F4" cx="6.122" cy="15.429" r="4.653"/>
            <path d="M11.943 2.449H2.75c-.167 0-.302-.147-.302-.328V.328c0-.181.135-.328.302-.328l9.192.586c.167 0 .302.147.302.328V2.12c0 .181-.135.328-.302.328zM9.306 15.166v1.015a.347.347 0 0 1-.347.347H7.222v1.737a.347.347 0 0 1-.347.347H5.86a.348.348 0 0 1-.348-.347v-1.737H3.776a.347.347 0 0 1-.347-.347v-1.015c0-.192.155-.347.347-.347h1.736v-1.737c0-.191.156-.347.348-.347h1.015c.192 0 .347.156.347.347v1.737h1.737c.192 0 .347.155.347.347z" fill="#2F80ED"/>
        </g>
    </g>
</svg>
