<svg width="37" height="36" xmlns="http://www.w3.org/2000/svg">
    <g transform="translate(.945)" fill="none" fill-rule="evenodd">
        <rect fill="#F0F7FE" width="36" height="36" rx="2"/>
        <g fill-rule="nonzero">
            <path d="M30 18c0-6.628-5.372-12-12-12-6.627 0-12 5.372-12 12 0 6.627 5.373 12 12 12 6.628 0 12-5.373 12-12z" fill="#2F80ED"/>
            <g fill="#F0F7FE">
                <path d="M21.25 23.392a.242.242 0 0 0-.304-.082c-1.19.563-2.539 1.158-2.804 1.21a.234.234 0 0 1-.03-.036.317.317 0 0 1-.054-.194c0-.672.508-2.719 1.509-6.081.844-2.825.942-3.41.942-3.605 0-.3-.115-.553-.333-.732-.206-.17-.494-.257-.857-.257-.602 0-1.3.23-2.135.7-.809.456-1.71 1.229-2.68 2.297a.242.242 0 0 0 .27.387c.341-.14 2.052-.84 2.301-.997.204-.128.381-.193.526-.193h.013c.002.01.003.025.003.046 0 .147-.03.322-.09.518-1.457 4.723-2.166 7.618-2.166 8.851 0 .436.121.786.36 1.042.243.26.57.393.974.393.43 0 .954-.18 1.6-.55.626-.357 1.581-1.143 2.92-2.404a.242.242 0 0 0 .034-.313zM21.203 9.709a1.219 1.219 0 0 0-.906-.368c-.452 0-.846.179-1.17.53-.319.347-.48.772-.48 1.264 0 .389.119.71.353.957.239.25.54.377.894.377.434 0 .825-.188 1.163-.56.333-.366.502-.795.502-1.277 0-.37-.12-.68-.356-.923z"/>
            </g>
        </g>
    </g>
</svg>
