<svg width="41" height="41" xmlns="http://www.w3.org/2000/svg">
    <g fill="#2196F3" fill-rule="nonzero">
        <path d="M16.998 24.005c-3.918-3.917-4.802-7.835-5.002-9.404-.056-.434.094-.87.404-1.178l3.17-3.168c.467-.466.55-1.193.2-1.752L10.722.666A1.415 1.415 0 0 0 8.89.15L.786 3.966c-.528.26-.839.82-.779 1.406.425 4.034 2.183 13.949 11.928 23.694 9.744 9.744 19.658 11.502 23.693 11.927.586.06 1.146-.25 1.406-.779l3.817-8.103a1.415 1.415 0 0 0-.513-1.83L32.5 25.234a1.415 1.415 0 0 0-1.752.199l-3.168 3.17c-.309.31-.744.46-1.178.404-1.57-.2-5.487-1.084-9.404-5.002z"/>
        <path d="M32.437 21.579a1.37 1.37 0 0 1-1.37-1.37c-.007-5.673-4.603-10.27-10.276-10.276a1.37 1.37 0 0 1 0-2.74c7.185.008 13.008 5.83 13.016 13.016a1.37 1.37 0 0 1-1.37 1.37z"/>
        <path d="M39.608 21.579a1.392 1.392 0 0 1-1.392-1.392C38.205 10.58 30.42 2.795 20.813 2.784a1.392 1.392 0 1 1 0-2.784C31.957.012 40.988 9.043 41 20.187a1.392 1.392 0 0 1-1.392 1.392z"/>
    </g>
</svg>
