<!-- Generated by IcoMoon.io -->
<svg version="1.1" xmlns="http://www.w3.org/2000/svg" width="512" height="512" viewBox="0 0 512 512">
<title></title>
<g id="icomoon-ignore">
</g>
<path fill="#32bea6" d="M512 256c0-141.398-114.624-256-256-256s-256 114.603-256 256c0 141.376 114.624 256 256 256s256-114.624 256-256z"></path>
<path fill="#fff" d="M376.235 242.411l-180.757-112.022c-2.43-1.5-5.376-2.388-8.529-2.388-2.914 0-5.65 0.758-8.023 2.089l0.083-0.042c-5.018 2.892-8.341 8.226-8.341 14.337 0 0.015 0 0.030 0 0.044v-0.002 223.146c0 5.93 3.2 11.435 8.32 14.336 2.292 1.317 5.041 2.094 7.97 2.094 3.137 0 6.065-0.89 8.547-2.433l-0.069 0.040 180.757-111.125c4.695-2.981 7.764-8.152 7.764-14.040 0-5.87-3.052-11.029-7.656-13.974l-0.067-0.040z"></path>
</svg>
