<svg width="81" height="66" xmlns="http://www.w3.org/2000/svg">
    <g fill-rule="nonzero" fill="none" opacity=".7">
        <path d="M21.972 36.187a5.529 5.529 0 0 0 1.256-4.157l-.54-4.83a16.18 16.18 0 0 1 1.998-9.76L33.544 1.77a3.478 3.478 0 0 1 1.28-1.294 3.5 3.5 0 0 1 4.226.541 3.462 3.462 0 0 1 1.021 2.454v1.717c0 .208-.018.416-.056.62l-2.707 14.818v13.75l-4.145 11-5.528 6.875-11.054-9.625 5.391-6.438z" fill="#F6BB92"/>
        <path d="M37.308 20.625v13.75l-2.361 6.263c-.452.591-.944 1.151-1.472 1.676L31.781 44l-2.764-13.75 2.764-4.125v-3.437c0-.65.185-1.288.534-1.837.35-.55.848-.99 1.438-1.269a3.47 3.47 0 0 1 3.665.442l-.11.601z" fill="#F6BB92"/>
        <path d="M29.544 30.354c.166-.835.495-1.63.97-2.339l1.267-1.89v-3.362c0-1.817 1.386-3.377 3.206-3.504a3.458 3.458 0 0 1 2.431.764l-.11.602V22l-7.762 10.883a6.452 6.452 0 0 1-.002-2.53z" fill="#E6AF89"/>
        <path d="M58.17 36.187a5.529 5.529 0 0 1-1.255-4.157l.539-4.83a16.18 16.18 0 0 0-1.997-9.76L46.598 1.77A3.478 3.478 0 0 0 45.32.475a3.5 3.5 0 0 0-4.226.541A3.462 3.462 0 0 0 40.07 3.47v1.717c0 .208.02.416.057.62l2.707 14.818v13.75l4.145 11 5.527 6.875 11.055-9.625-5.392-6.438z" fill="#F6BB92"/>
        <path d="m48.362 44-1.694-1.686a16.484 16.484 0 0 1-1.472-1.676l-2.361-6.263v-13.75l-.11-.601a3.463 3.463 0 0 1 5.102.827c.35.55.535 1.186.535 1.837v3.437l2.764 4.125L48.362 44z" fill="#F6BB92"/>
        <path d="m42.835 20.625-.11-.602a3.458 3.458 0 0 1 2.43-.764c1.821.127 3.207 1.687 3.207 3.504v3.362l1.266 1.89a6.466 6.466 0 0 1 .968 4.869L42.835 22v-1.375z" fill="#E6AF89"/>
        <path d="m15.2 41.25 13.817 12.375L19.345 66H0v-8.25l15.2-16.5zM64.943 41.25 51.126 53.625 60.798 66h19.345v-8.25l-15.2-16.5z" fill="#DCDBD6"/>
        <g fill="#F6BB92">
            <path d="M33.163 27.5v-3.438c0-.911.364-1.786 1.011-2.43a3.463 3.463 0 0 1 4.886 0 3.429 3.429 0 0 1 1.011 2.43v4.593c0 1.977-.164 3.95-.49 5.9a16.803 16.803 0 0 1-4.724 9.134l-1.694 1.686-2.764-13.75 2.764-4.125z"/>
            <path d="M46.98 27.5v-3.438c0-.911-.364-1.786-1.011-2.43a3.463 3.463 0 0 0-4.886 0 3.429 3.429 0 0 0-1.012 2.43v4.593c0 1.977.165 3.95.491 5.9a16.803 16.803 0 0 0 4.724 9.134l1.694 1.686 2.764-13.75L46.98 27.5z"/>
        </g>
    </g>
</svg>
