<svg width="37" height="36" xmlns="http://www.w3.org/2000/svg">
    <g transform="translate(.78)" fill="none" fill-rule="evenodd">
        <rect fill="#F0F7FE" width="36" height="36" rx="2"/>
        <g fill="#2F80ED" fill-rule="nonzero">
            <path d="M26.276 9.735a3.268 3.268 0 0 0-.828 0 4.624 4.624 0 0 0-2.964-3.46 4.606 4.606 0 0 0-4.484.77A4.526 4.526 0 0 0 15.103 6a4.469 4.469 0 0 0-4.536 4.148 3.77 3.77 0 0 0-.843 0A3.729 3.729 0 0 0 6 13.883a3.729 3.729 0 0 0 3.724 3.734 4.842 4.842 0 0 0 1.655-.415c.731 1.174 1.83 2.075 3.31 2.075A4.123 4.123 0 0 0 18 17.61a4.123 4.123 0 0 0 3.31 1.667c1.622 0 3.046-1.127 3.724-2.49.387.21.807.35 1.242.415A3.729 3.729 0 0 0 30 13.468a3.729 3.729 0 0 0-3.724-3.733zM10.882 22.647c0 .902-.75 1.634-1.675 1.634s-1.675-.732-1.675-1.634c0-.903 1.675-2.86 1.675-2.86s1.675 1.957 1.675 2.86zM19.675 24.28c0 .903-.75 1.635-1.675 1.635s-1.675-.732-1.675-1.634c0-.903 1.675-2.86 1.675-2.86s1.675 1.957 1.675 2.86zM28.468 22.647c0 .902-.75 1.634-1.675 1.634s-1.675-.732-1.675-1.634c0-.903 1.675-2.86 1.675-2.86s1.675 1.957 1.675 2.86zM15.069 28.366c0 .902-.75 1.634-1.675 1.634s-1.675-.732-1.675-1.634c0-.902 1.675-2.86 1.675-2.86s1.675 1.958 1.675 2.86zM24.7 28.366c0 .902-.75 1.634-1.675 1.634s-1.675-.732-1.675-1.634c0-.902 1.675-2.86 1.675-2.86s1.675 1.958 1.675 2.86z"/>
        </g>
    </g>
</svg>
