<svg width="36" height="36" xmlns="http://www.w3.org/2000/svg">
    <g fill="none" fill-rule="evenodd">
        <rect fill="#F0F7FE" width="36" height="36" rx="2"/>
        <g fill="#2F80ED" fill-rule="nonzero">
            <path d="M13.968 18.425c0-3.33 3.685-6.387 4.347-8.104.231-.6 1.139-.6 1.37 0 .662 1.716 4.347 4.775 4.347 8.104 0 6.134-10.064 6.152-10.064 0z"/>
            <path d="M24.457 7.457C18.928 4.331 11.678 6.401 8.9 12.08l-.553-1.112a.721.721 0 0 0-.945-.322.67.67 0 0 0-.334.91l1.28 2.572c.168.34.591.484.944.321l2.666-1.225a.67.67 0 0 0 .334-.909.721.721 0 0 0-.946-.32l-1.078.495c2.485-4.828 8.713-6.547 13.47-3.858.337.191.771.083.97-.242a.667.667 0 0 0-.252-.933zM21.407 26.263l-2.393-1.67a.689.689 0 0 0-.968.183.716.716 0 0 0 .18.985l.983.686c-5.27.355-10.101-3.964-10.042-9.666a.703.703 0 0 0-.689-.716.702.702 0 0 0-.703.7c-.07 6.631 5.601 11.608 11.72 11.081l-.703 1.045a.716.716 0 0 0 .18.985c.317.221.75.139.968-.184l1.648-2.444a.717.717 0 0 0-.18-.985z"/>
            <path d="m21.594 27.259-1.634 2.434c-.384.572-1.26.29-1.26-.4 0-.282.069-.32.82-1.439-.304.027-.607.039-.907.038V26.48c.207 0 .414-.006.623-.02l-.623-.437V24.49a.676.676 0 0 1 .43.122l2.373 1.665c.314.22.394.66.178.982zM29.45 10.087a.701.701 0 0 0-.635-.759l-2.88-.23a.697.697 0 0 0-.742.65l-.224 2.933a.701.701 0 0 0 .635.759.696.696 0 0 0 .742-.65l.09-1.18c3.007 4.627 1.511 10.87-3.165 13.601a.714.714 0 0 0-.257.963c.19.339.611.456.942.263 5.513-3.219 7.076-10.547 3.503-15.8l1.248.099c.38.03.713-.26.743-.65z"/>
        </g>
    </g>
</svg>
