<svg width="36" height="36" xmlns="http://www.w3.org/2000/svg">
    <g fill="none" fill-rule="evenodd">
        <rect fill="#F0F7FE" width="36" height="36" rx="2"/>
        <g fill-rule="nonzero">
            <path d="M6 15.992v5.35l14.676 5.374V19.78c-4.187-1.663-6.838-4.069-14.315-4.144a.357.357 0 0 0-.361.357zM25.362 20.914 28.216 30h1.07c.197 0 .357-.16.357-.357v-1.118l-4.281-7.611z" fill="#2F80ED"/>
            <path d="M6 22.817v6.826c0 .197.16.357.357.357h21.86V18.06L6 22.816z" fill="#2F80ED"/>
            <path d="M29.283 15.635c-.367.004-.722.013-1.067.028l-3.806 6.416 3.806 6.417c.456.019.931.03 1.427.03V15.991a.357.357 0 0 0-.36-.357z" fill="#6BA5F3"/>
            <path d="M6 21.342v1.475c11.325 0 11.801 5.239 22.216 5.679V15.663c-10.415.44-10.89 5.679-22.216 5.679z" fill="#6BA5F3"/>
            <g transform="translate(7.07 26.789)" fill="#F0F7FE">
                <circle cx="1.784" cy="1.784" r="1"/>
                <circle cx="10.751" cy="1.784" r="1"/>
                <circle cx=".357" cy=".357" r="1"/>
            </g>
            <path d="M17.822 7.784v5.709a2.854 2.854 0 0 0 0-5.71z" fill="#2F80ED"/>
            <path d="M19.249 10.638c0-1.576-.64-2.854-1.427-2.854a2.854 2.854 0 0 0 0 5.709c.788 0 1.427-1.278 1.427-2.855z" fill="#2F80ED"/>
            <path d="M17.822 15.277c-.97 0-1.9-.297-2.688-.858a.357.357 0 0 1 .414-.581 3.898 3.898 0 0 0 2.274.725 3.93 3.93 0 0 0 3.924-3.925 3.93 3.93 0 0 0-3.924-3.924 3.93 3.93 0 0 0-3.925 3.924c0 .821.25 1.608.725 2.274a.357.357 0 1 1-.58.414 4.607 4.607 0 0 1-.859-2.688A4.643 4.643 0 0 1 17.822 6a4.643 4.643 0 0 1 4.638 4.638 4.643 4.643 0 0 1-4.638 4.639z" fill="#6BA5F3"/>
        </g>
    </g>
</svg>
