<svg width="41" height="41" xmlns="http://www.w3.org/2000/svg">
    <g fill-rule="nonzero" fill="none">
        <path d="M23 7.31V1.286c0-.342-.14-.669-.383-.91a1.32 1.32 0 0 0-.93-.376H3.313C2.588 0 2 .576 2 1.286V7.31c0 3.09 1.228 5.996 3.46 8.182l2.56 2.507-2.56 2.507C3.228 22.694 2 25.596 2 28.687v6.027c0 .342.14.669.383.91.244.242.58.376.93.376l18.375-.003c.724 0 1.312-.576 1.312-1.285v-6.027c0-3.09-1.229-5.996-3.46-8.182L16.98 18l2.56-2.51C21.772 13.306 23 10.401 23 7.31z" fill="#ECEFF1"/>
        <g fill="#607D8B">
            <path d="M1.3 2.571c-.718 0-1.3-.573-1.3-1.285C0 .579.582 0 1.3 0h23.4c.718 0 1.3.576 1.3 1.286 0 .71-.582 1.285-1.3 1.285H1.3zM24.7 36H1.3C.585 36 0 35.421 0 34.714c0-.707.585-1.285 1.3-1.285h23.4c.715 0 1.3.578 1.3 1.285S25.415 36 24.7 36z"/>
        </g>
        <g fill="#2196F3" fill-opacity=".6">
            <path d="M5 5v2.222c0 2.465.91 4.78 2.563 6.525 0 0 4.937 4.087 4.937 4.435 0-.348 4.938-4.437 4.938-4.437C19.09 12.002 20 9.685 20 7.222V5H5zM5 34v-2.222c0-2.465.91-4.78 2.563-6.525 0 .002 4.937-4.087 4.937-4.435 0 .348 4.938 4.437 4.938 4.437C19.09 26.998 20 29.315 20 31.78V34H5z"/>
        </g>
        <path d="M23.75 34.433H22.5v-4.732c0-3.085-1.17-5.986-3.295-8.167L18.683 21A14.254 14.254 0 0 0 15 30.584c0 2.312.555 4.489 1.517 6.416h7.233c.688 0 1.25-.577 1.25-1.283s-.563-1.284-1.25-1.284z" fill="#FAFAFA"/>
        <circle fill="#2196F3" cx="29.5" cy="29.5" r="11.5"/>
        <path d="M33.6 35c-.359 0-.717-.13-.992-.39l-4.2-4c-.26-.25-.408-.589-.408-.943v-5.334c0-.736.627-1.333 1.4-1.333.773 0 1.4.597 1.4 1.333v4.782l3.79 3.61a1.29 1.29 0 0 1 0 1.886c-.274.258-.632.389-.99.389z" fill="#FAFAFA"/>
    </g>
</svg>
