<svg width="37" height="36" xmlns="http://www.w3.org/2000/svg">
    <g transform="translate(.836)" fill="none" fill-rule="evenodd">
        <rect fill="#F0F7FE" width="36" height="36" rx="2"/>
        <g fill-rule="nonzero">
            <path d="M18.23 27.847v1.931h5.377v-1.67l.802-7.368-.922-11.257a.405.405 0 0 0-.404-.372c-.839 0-1.522.675-1.533 1.513l-.06 4.714a.662.662 0 0 0-.376-.117 1.813 1.813 0 0 0-1.813 1.813V21.764a.376.376 0 0 1-.256.358 2.399 2.399 0 0 0-1.651 2.28v1.308c0 .627.24 1.197.634 1.624.13.14.201.323.201.513z" fill="#2F80ED"/>
            <path d="M21.78 23.654a.222.222 0 0 1-.223-.222v-7.546a.444.444 0 0 0-.443-.443c-.877 0-1.59.713-1.59 1.59v4.731a.222.222 0 0 1-.445 0v-4.73c0-1.122.913-2.035 2.035-2.035.49 0 .887.398.887.887v7.546c0 .123-.1.222-.222.222z" fill="#F0F7FE"/>
            <path d="M23.607 30h-5.378a.222.222 0 0 1-.222-.222v-1.931a.534.534 0 0 0-.142-.362 2.611 2.611 0 0 1-.693-1.775v-1.308c0-1.137.724-2.137 1.803-2.49a.153.153 0 0 0 .104-.148v-4.73c0-1.123.913-2.035 2.035-2.035.053 0 .106.004.158.014l.056-4.392c.013-.955.8-1.732 1.755-1.732a.63.63 0 0 1 .625.576l.922 11.257a.213.213 0 0 1 0 .042l-.801 7.356v1.658c0 .123-.1.222-.222.222zm-5.156-.444h4.934v-1.448l.001-.024.8-7.347-.92-11.235a.184.184 0 0 0-.183-.169c-.714 0-1.301.58-1.31 1.294l-.06 4.713a.222.222 0 0 1-.348.18.44.44 0 0 0-.25-.077c-.878 0-1.592.713-1.592 1.59v4.731c0 .26-.164.49-.41.57a2.171 2.171 0 0 0-1.497 2.068v1.308c0 .548.204 1.071.576 1.474.167.181.26.417.26.663v1.709z" fill="#F0F7FE"/>
            <path d="M20.694 9.776a1.62 1.62 0 0 1-1.618 1.553h-1.955a.376.376 0 0 0-.358.257 2.399 2.399 0 0 1-2.279 1.651h-1.308a2.389 2.389 0 0 1-1.625-.635.757.757 0 0 0-.512-.2H6.222V7.023h4.556l7.367-.802 11.257.922c.21.017.372.193.372.404 0 .838-.674 1.522-1.513 1.532l-7.558.097-.009.6z" fill="#F9CFCF"/>
            <path d="m29.402 7.144-11.257-.922-7.367.802H6.222V12.4h4.817c.19 0 .373.072.512.201.428.394.998.635 1.625.635h1.308a2.399 2.399 0 0 0 2.28-1.65.376.376 0 0 1 .357-.258h4.731a1.813 1.813 0 0 0 1.813-1.812c0-.14-.043-.27-.117-.377l4.713-.06a1.533 1.533 0 0 0 1.514-1.532.405.405 0 0 0-.373-.404z" fill="#2F80ED"/>
            <path d="M14.484 13.459h-1.308c-.66 0-1.29-.246-1.775-.694a.533.533 0 0 0-.362-.142H6.222A.222.222 0 0 1 6 12.401V7.024c0-.123.1-.222.222-.222h4.544l7.355-.8A.242.242 0 0 1 18.163 6l11.257.921a.63.63 0 0 1 .576.626c0 .955-.777 1.742-1.732 1.754l-4.391.056c.009.052.014.105.014.159a2.037 2.037 0 0 1-2.035 2.035H17.12a.153.153 0 0 0-.147.103 2.614 2.614 0 0 1-2.49 1.804zm-8.04-1.28h4.595c.246 0 .481.093.663.26.403.372.926.576 1.474.576h1.308c.944 0 1.775-.602 2.068-1.498a.596.596 0 0 1 .57-.41h4.73c.877 0 1.591-.713 1.591-1.59a.44.44 0 0 0-.078-.25.222.222 0 0 1 .18-.349l4.714-.06a1.316 1.316 0 0 0 1.294-1.31.184.184 0 0 0-.169-.183l-11.236-.92-7.346.8a.217.217 0 0 1-.024 0H6.444v4.934z" fill="#F0F7FE"/>
            <path d="M21.852 11.551h-4.73a.222.222 0 0 1 0-.444h4.73c.877 0 1.591-.713 1.591-1.59A.444.444 0 0 0 23 9.073h-7.546a.222.222 0 0 1 0-.444H23c.489 0 .887.398.887.888a2.037 2.037 0 0 1-2.035 2.034z" fill="#F0F7FE"/>
            <g transform="translate(7.554 14.776)">
                <circle fill="#2F80ED" cx="4.556" cy="4.556" r="4.334"/>
                <circle fill="#2F80ED" cx="4.556" cy="4.556" r="3.294"/>
                <path d="M4.556 9.112A4.561 4.561 0 0 1 0 4.556 4.561 4.561 0 0 1 4.556 0a4.561 4.561 0 0 1 4.556 4.556 4.56 4.56 0 0 1-4.556 4.556zm0-8.668A4.116 4.116 0 0 0 .444 4.556a4.116 4.116 0 0 0 4.112 4.112 4.116 4.116 0 0 0 4.112-4.112A4.116 4.116 0 0 0 4.556.444z" fill="#2F80ED"/>
                <path d="M4.2 5.114 3.86 2.41a.601.601 0 0 1 .193-.564.751.751 0 0 1 .502-.17c.222 0 .4.067.537.2.137.135.19.315.159.542l-.348 2.696c-.022.246-.17.363-.348.363-.202 0-.327-.147-.355-.363zM3.9 6.543c0-.377.267-.665.656-.665.39 0 .657.29.657.665 0 .375-.266.664-.657.664-.39 0-.656-.289-.656-.664z" fill="#F0F7FE"/>
            </g>
        </g>
    </g>
</svg>
