<svg width="37" height="36" xmlns="http://www.w3.org/2000/svg">
    <g transform="translate(.89)" fill="none" fill-rule="evenodd">
        <rect fill="#F0F7FE" width="36" height="36" rx="2"/>
        <g fill-rule="nonzero">
            <path d="M22.692 15.557c-10.369-3.544-3.377-7.788.141-9.462.048-.023.032-.095-.021-.095h-2.51c-.397 0-.79.092-1.153.27-3.986 1.948-12.023 6.688-5.53 10.664 7.446 4.559-.537 10.512-4.714 13.066h16.381c2.191-3.127 6.73-11.257-2.594-14.443z" fill="#2F80ED"/>
            <path d="M16.622 9.344a.362.362 0 0 1-.199-.666c.16-.105.261-.162.265-.165a.362.362 0 0 1 .36.63 4.922 4.922 0 0 0-.227.142.36.36 0 0 1-.199.059z" fill="#F0F7FE"/>
            <g fill="#F0F7FE">
                <path d="M20.073 26.716a.361.361 0 0 1-.266-.61c.132-.141.26-.286.383-.43a.362.362 0 1 1 .552.47c-.129.152-.264.304-.403.454a.361.361 0 0 1-.266.116zM21.61 24.675a.362.362 0 0 1-.314-.543c.095-.167.183-.335.262-.499a.362.362 0 0 1 .654.313c-.086.18-.183.364-.288.547a.362.362 0 0 1-.315.182zM22.425 22.27h-.03a.362.362 0 0 1-.332-.39 3.692 3.692 0 0 0 .003-.536.362.362 0 0 1 .723-.05 4.216 4.216 0 0 1-.003.643.362.362 0 0 1-.361.334zM21.792 19.843a.362.362 0 0 1-.303-.162 4.38 4.38 0 0 0-.329-.434.362.362 0 0 1 .55-.472c.141.164.27.334.384.506a.362.362 0 0 1-.302.562zM19.94 18.106a.36.36 0 0 1-.197-.058 9.81 9.81 0 0 0-.487-.294.362.362 0 1 1 .356-.63c.182.102.358.208.524.315a.362.362 0 0 1-.197.667zM17.67 16.93a.361.361 0 0 1-.164-.039 15.827 15.827 0 0 1-.533-.283.362.362 0 1 1 .352-.634c.162.09.334.182.51.27a.362.362 0 0 1-.165.686zM15.522 15.552a.361.361 0 0 1-.235-.086 6.586 6.586 0 0 1-.456-.427.362.362 0 1 1 .52-.504c.123.127.26.254.406.38a.362.362 0 0 1-.235.637zM14.119 13.47a.363.363 0 0 1-.354-.288 2.882 2.882 0 0 1-.061-.67.363.363 0 0 1 .724.019v.057c0 .149.015.298.046.444a.362.362 0 0 1-.355.438zM14.75 11.07a.362.362 0 0 1-.293-.575c.118-.163.252-.328.397-.488a.362.362 0 1 1 .538.485 5.162 5.162 0 0 0-.348.428.362.362 0 0 1-.294.15z"/>
            </g>
            <path d="M18.413 28.256a.362.362 0 0 1-.22-.652c.001 0 .08-.06.215-.171a.362.362 0 1 1 .462.558 7.93 7.93 0 0 1-.238.19.36.36 0 0 1-.22.075z" fill="#F0F7FE"/>
            <path d="M23.521 14.688c-9.88-3.054-4.18-6.531-.521-8.323.17-.083.116-.365-.07-.365h-.137c-3.441 1.603-10.913 5.944-.343 9.557 9.325 3.186 4.786 11.316 2.595 14.443h1.857c.464 0 .891-.282 1.11-.734 2.106-4.334 4.07-11.932-4.49-14.578z" fill="#2F80ED"/>
            <path d="M13.716 16.934c-4.801-2.94-1.756-6.297 1.82-8.635-4 2.243-8.587 5.93-3.21 9.222 6.297 3.855-.309 8.709-5.122 11.659-.357.22-.216.82.193.82h1.604c4.178-2.554 12.16-8.507 4.715-13.066z" fill="#2F80ED"/>
        </g>
    </g>
</svg>
