<svg width="36" height="36" xmlns="http://www.w3.org/2000/svg">
    <g fill="none" fill-rule="evenodd">
        <rect fill="#F0F7FE" width="36" height="36" rx="2"/>
        <g fill-rule="nonzero">
            <g fill="#2F80ED">
                <path d="M21.484 14.129c-.199 0-.396.02-.592.058A3.086 3.086 0 0 0 18 12.194c-1.162 0-2.2.634-2.733 1.642a3.062 3.062 0 0 0-.75-.094 3.1 3.1 0 0 0-3.066 3.54l13.13-.056a3.1 3.1 0 0 0-3.097-3.097zM14.903 26.903c-.64 0-1.161-.52-1.161-1.161v-4.645c0-.64.521-1.162 1.161-1.162s1.162.522 1.162 1.162v4.645c0 .64-.522 1.161-1.162 1.161zM18 26.903c-.64 0-1.161-.52-1.161-1.161v-4.645c0-.64.52-1.162 1.161-1.162.64 0 1.161.522 1.161 1.162v4.645c0 .64-.52 1.161-1.161 1.161zM21.097 26.903c-.64 0-1.162-.52-1.162-1.161v-4.645a1.163 1.163 0 0 1 2.323 0v4.645c0 .64-.521 1.161-1.161 1.161z"/>
            </g>
            <path d="M16.452 9.097h.458c.16.45.586.774 1.09.774.504 0 .93-.325 1.09-.774h.458a1.163 1.163 0 0 0 0-2.323h-.458A1.16 1.16 0 0 0 18 6c-.504 0-.93.325-1.09.774h-.458c-.64 0-1.162.521-1.162 1.161s.521 1.162 1.162 1.162zm1.548 0a.388.388 0 0 1-.387-.387v-.387h.774v.387a.388.388 0 0 1-.387.387zm1.935-1.162a.388.388 0 0 1-.387.388h-.387v-.775h.387c.214 0 .387.174.387.387zM18 6.775c.214 0 .387.173.387.386v.387h-.774v-.387c0-.213.173-.387.387-.387zm-1.548.773h.387v.775h-.387a.388.388 0 0 1 0-.775zM28.839 10.258h-.459a1.16 1.16 0 0 0-1.09-.774c-.504 0-.93.325-1.09.774h-.458c-.64 0-1.161.521-1.161 1.161s.52 1.162 1.16 1.162h.46c.113.32.36.574.677.695-.076.478-.34.666-.71.925-.535.372-1.2.834-1.2 2.25h.774c0-1.011.383-1.277.868-1.615.426-.297.942-.662 1.045-1.546a1.16 1.16 0 0 0 .725-.71h.459c.64 0 1.161-.52 1.161-1.16 0-.64-.521-1.162-1.161-1.162zm-1.549 0c.214 0 .387.174.387.387v.387h-.774v-.387c0-.213.174-.387.387-.387zm-1.935 1.161c0-.213.173-.387.387-.387h.387v.774h-.387a.388.388 0 0 1-.387-.387zm1.935 1.162a.388.388 0 0 1-.387-.387v-.388h.774v.388a.388.388 0 0 1-.387.387zm1.549-.775h-.387v-.774h.387a.388.388 0 0 1 0 .774zM24.194 16.839H11.806a1.158 1.158 0 0 0-.344 2.265l1.32 9.234A1.945 1.945 0 0 0 14.698 30h6.604c.957 0 1.78-.715 1.916-1.662l1.32-9.235a1.158 1.158 0 0 0-.344-2.264zm-2.892 12.387h-6.604c-.496 0-.931-.32-1.093-.774h8.79a1.167 1.167 0 0 1-1.093.774zm1.228-1.549h-9.06l-1.217-8.516h11.494l-1.217 8.516zm1.664-9.29H11.806a.388.388 0 0 1 0-.774h12.388a.388.388 0 0 1 0 .774z" fill="#2F80ED"/>
            <path fill="#F0F7FE" d="M13.742 15.29h.774v.775h-.774zM17.226 13.742H18v.774h-.774zM18.387 15.29h.774v.775h-.774zM16.065 15.29h.774v.775h-.774z"/>
            <path d="M22.728 10.516c.506-.959 1.078-2.045 1.078-3.355h-.774c0 1.119-.503 2.072-.989 2.993-.465.882-.946 1.794-.946 2.814h.774c0-.828.416-1.617.857-2.452zM13.355 12.968h.774c0-1.517-.466-2.272-.877-2.937-.36-.584-.671-1.089-.671-2.096h-.775c0 1.227.4 1.875.787 2.502.392.635.762 1.234.762 2.53zM10.002 13.27c-.434-.388-.812-.731-.889-1.54.32-.12.571-.375.686-.698h.46c.64 0 1.16-.521 1.16-1.161s-.52-1.162-1.16-1.162h-.46a1.16 1.16 0 0 0-1.09-.774c-.503 0-.93.325-1.09.775h-.458C6.521 8.71 6 9.23 6 9.87c0 .64.521 1.161 1.161 1.161h.459c.119.334.385.596.721.71.094 1.152.669 1.68 1.144 2.106.45.401.773.692.773 1.442h.774c0-1.096-.547-1.587-1.03-2.02zm-1.68-3.012h.775v.387a.388.388 0 0 1-.774 0v-.387zm2.323-.387a.388.388 0 0 1-.387.387h-.387v-.774h.387c.214 0 .387.174.387.387zM8.71 8.71c.213 0 .387.174.387.387v.387h-.774v-.387c0-.213.173-.387.387-.387zM6.774 9.87c0-.213.174-.387.387-.387h.387v.774h-.387a.388.388 0 0 1-.387-.387z" fill="#2F80ED"/>
        </g>
    </g>
</svg>
