<svg width="41" height="41" xmlns="http://www.w3.org/2000/svg">
    <g fill-rule="nonzero" fill="none">
        <path d="M20.505 0h-.01C9.192 0 0 9.194 0 20.5c0 4.484 1.445 8.64 3.903 12.016L1.348 40.13l7.88-2.519A20.323 20.323 0 0 0 20.505 41C31.808 41 41 31.803 41 20.5S31.808 0 20.505 0z" fill="#4CAF50"/>
        <path d="M31.796 29.205c-.478 1.387-2.372 2.538-3.883 2.874-1.033.226-2.384.407-6.929-1.533-5.813-2.48-9.557-8.56-9.85-8.955-.279-.395-2.348-3.22-2.348-6.142 0-2.923 1.441-4.346 2.022-4.957.478-.501 1.267-.73 2.023-.73.245 0 .465.013.663.023.581.025.873.06 1.256 1.005.477 1.184 1.64 4.106 1.778 4.407.141.3.282.707.084 1.102-.185.407-.348.588-.64.934-.292.346-.569.611-.86.983-.268.323-.57.67-.233 1.267.336.586 1.498 2.538 3.21 4.106 2.208 2.024 3.998 2.67 4.639 2.945.477.204 1.046.156 1.394-.226.443-.491.99-1.306 1.546-2.108.395-.575.895-.646 1.42-.443.533.191 3.36 1.63 3.94 1.927.582.3.965.443 1.106.695.139.252.139 1.436-.338 2.826z" fill="#FAFAFA"/>
    </g>
</svg>
